<?xml version="1.0" encoding="UTF-8"?>
<svg width="77px" height="77px" viewBox="0 0 77 77" version="1.1" xmlns="http://www.w3.org/2000/svg" xmlns:xlink="http://www.w3.org/1999/xlink">
    <title>xhdpi/编组 4</title>
    <g id="页面-1" stroke="none" stroke-width="1" fill="none" fill-rule="evenodd">
        <g id="账户登录" transform="translate(-339.000000, -1417.000000)">
            <g id="编组-3" transform="translate(339.000000, 1417.000000)">
                <g id="编组-2" fill="#28C445">
                    <circle id="椭圆形" cx="38.5" cy="38.5" r="38.5" />
                </g>
                <g id="编组" transform="translate(17.000000, 21.000000)" fill="#FFFFFF" fill-rule="nonzero">
                    <path
                        d="M28.42875,10.2847718 C28.91175,10.2847718 29.386875,10.3212888 29.864625,10.3734561 C28.578375,4.42117376 22.176,0 14.865375,0 C6.69375,0 0,5.53233602 0,12.5618719 C0,16.617875 2.226,19.9487534 5.94825,22.5362486 L4.4625,26.9782892 L9.66,24.390794 C11.5185,24.7533563 13.0095,25.1289605 14.865375,25.1289605 C15.332625,25.1289605 15.794625,25.1080936 16.251375,25.0741849 C15.962625,24.0856157 15.792,23.0527043 15.792,21.9754507 C15.794625,15.5223629 21.370125,10.2847718 28.42875,10.2847718 Z M20.43825,6.28093594 C21.56175,6.28093594 22.299375,7.01388569 22.299375,8.12504795 C22.299375,9.23099348 21.56175,9.97176832 20.43825,9.97176832 C19.327875,9.97176832 18.209625,9.23099348 18.209625,8.12504795 C18.209625,7.01127733 19.32525,6.28093594 20.43825,6.28093594 Z M10.035375,9.97176832 C8.91975,9.97176832 7.79625,9.23099348 7.79625,8.12504795 C7.79625,7.01388569 8.91975,6.28093594 10.035375,6.28093594 C11.151,6.28093594 11.89125,7.01127733 11.89125,8.12504795 C11.89125,9.23099348 11.151,9.97176832 10.035375,9.97176832 Z M42,21.7980821 C42,15.8927503 36.05175,11.0803222 29.371125,11.0803222 C22.29675,11.0803222 16.729125,15.8953586 16.729125,21.7980821 C16.729125,27.7190641 22.299375,32.515842 29.371125,32.515842 C30.851625,32.515842 32.34525,32.1480629 33.831,31.7776755 L37.907625,34 L36.789375,30.3065593 C39.774,28.079018 42,25.1289605 42,21.7980821 Z M25.270875,19.9487534 C24.53325,19.9487534 23.785125,19.218412 23.785125,18.4724204 C23.785125,17.7368623 24.53325,16.9960875 25.270875,16.9960875 C26.399625,16.9960875 27.132,17.7368623 27.132,18.4724204 C27.132,19.218412 26.399625,19.9487534 25.270875,19.9487534 Z M33.44775,19.9487534 C32.715375,19.9487534 31.969875,19.218412 31.969875,18.4724204 C31.969875,17.7368623 32.71275,16.9960875 33.44775,16.9960875 C34.566,16.9960875 35.308875,17.7368623 35.308875,18.4724204 C35.308875,19.218412 34.566,19.9487534 33.44775,19.9487534 Z"
                        id="形状" />
                </g>
            </g>
        </g>
    </g>
</svg>