<?xml version="1.0" encoding="UTF-8"?>
<svg width="32px" height="32px" viewBox="0 0 32 32" version="1.1" xmlns="http://www.w3.org/2000/svg" xmlns:xlink="http://www.w3.org/1999/xlink">
    <title>xhdpi/编组 6</title>
    <defs>
        <linearGradient x1="0%" y1="50%" x2="103.519864%" y2="50%" id="linearGradient-1">
            <stop stop-color="#6BD463" offset="0%" />
            <stop stop-color="#5EB867" offset="100%" />
        </linearGradient>
    </defs>
    <g id="页面-1" stroke="none" stroke-width="1" fill="none" fill-rule="evenodd">
        <g id="一键登录" transform="translate(-60.000000, -615.000000)">
            <g id="编组-6" transform="translate(60.000000, 615.000000)">
                <circle id="椭圆形" fill="url(#linearGradient-1)" cx="16" cy="16" r="16" />
                <g id="xuanzhong-6" transform="translate(6.000000, 10.000000)" fill="#FFFFFF" fill-rule="nonzero" stroke="#FFFFFF" stroke-width="0.5">
                    <path
                        d="M17.3117782,0.338866774 L7.24924806,9.7068867 L2.12145906,4.93301481 C1.63614026,4.48119245 0.849307893,4.48119245 0.363989097,4.93301481 C-0.121329699,5.38483718 -0.121329699,6.11736282 0.363989097,6.56918519 L6.37049366,12.1611242 C6.61317248,12.3870534 6.93119085,12.5 7.24920923,12.5 C7.5672276,12.5 7.88528481,12.3870534 8.12792479,12.1611242 L19.0692093,1.97503715 C19.5545281,1.52321478 19.5545281,0.79068914 19.0692093,0.338866774 C18.5839293,-0.112955591 17.7970581,-0.112955591 17.3117782,0.338866774 Z"
                        id="路径" />
                </g>
            </g>
        </g>
    </g>
</svg>